<svg xmlns="http://www.w3.org/2000/svg" viewBox="0 0 1920 4800" shape-rendering="geometricPrecision" text-rendering="geometricPrecision" style="background-color:transparent"><path fill="#d2dbed" d="M112.525 546.206l19.742 111.361-65.056-20.565 45.314-90.796zM1797.42 657.567l15.775 109.67-61.089-18.873 45.315-90.797zm-547.157 64.271l45.314 90.797-71.37 35.313 26.056-126.11zM248.929 797.13l90.628 101.634H248.93V797.131zM1360.32 372.79l45.314 90.796-68.749 30.906 23.435-121.702zm452.875 475.158l2.3 121.459h-90.628l88.328-121.46zm-1130.602-39.98l45.314 90.796-54.144 25.245 8.83-116.04zm-440.797 301.73l7.634 82.202h-52.698l45.064-82.202zM89.495 1253.144l22.78 39.7-67.843 42.502 45.063-82.202zM67.21 1501.075l45.064 82.202-67.842-24.793 22.779-57.41zm32.53 227.418l41.52 49.587H51.135l48.605-49.587zm194.754 66.557l52.577 41.101-97.64 41.101 45.063-82.202zm-60.212-211.773l45.063 82.202-68.636 18.741 23.573-100.943zm1607.458-473.579l16.519 70.544h-90.127l73.608-70.544zm-209.18 82.202l38.17 23.022-83.233 59.18 45.063-82.202zm-90.127-106.256l38.17 42.502-83.233 39.7 45.063-82.202zm90.127 497.633l38.17 39.33h-90.126l51.956-39.33zm182.935-133.19l45.063 82.202-63.137-14.537 18.074-67.665zm-327.961 293.975l45.064 82.202-62.754-31.214 17.69-50.988zm280.598 92.089l1.77 50.325h-90.126l88.356-50.325zM660.526 1795.05l40.309 41.101h-90.127l49.818-41.1zm-533.201 265.794l16.306 76.187-74.515 32.38 58.209-108.567zm212.232 93.329l95.49 80.95-116.42-13.622 20.93-67.328zM468.87 2339.88l31.899 75.234-90.108 33.332 58.21-108.567zm-243.884 207.609l42.449 56.188-100.658 52.378 58.21-108.566zm674.9 159.992l-7.718 133.328-50.491-24.761 58.21-108.567zm179.027 0l23.311 73.806-81.52 34.76 58.21-108.566zm443.482-118.089l20.038 108.09-78.247.476 58.209-108.566zm-883.769-140.946l17.146 99.043-75.355 9.523 58.209-108.566zm224.751-305.701l58.21 108.567-78.005-7.619 19.795-100.948zm965.613 218.085l12.75 78.092-70.96 30.475 58.21-108.566zm-46.34 359.032l58.21 108.566h-58.21v-108.566zm-1181.822-43.808l58.21 108.567-58.21-23.809v-84.758zm896.542-571.402l99.826 76.187h-116.418l16.592-76.187zM166.777 2883.483v94.418l-70.902 34.956 70.902-129.374zm56.304 341.468l-70.642 127.093v-64.687l70.642-62.406zm386.801-121.801l90.953 51.214H559.03l50.852-51.213zm795.752-90.293v84.631l-70.902 44.743 70.902-129.374zm-314.157 634.268l40.89 48.43H990.561l100.915-48.43zm167.705-259.347l36.395 80.944-107.297 48.43 70.902-129.374zm-862.113 288.203l133.21 82.35-95.233-17.663-37.977-64.687zm-329.859-94.18l60.115 76.25-72.397 17.93 12.283-94.18zm1099.255 94.18l38.853 64.687-109.755 64.687 70.902-129.374zm529.903-63.68l89.333 83.254h-141.805l52.472-83.254zm-170.074-483.544l70.902 129.374-70.902-48.43v-80.944zM78.353 3924.306l52.973 68.189-71.274 19.216 18.301-87.405zm67.777 476.896l20.647 142.87-97.6-16.078 76.952-126.792zm384.15 188.408l48.54 45.537-128.74 38.965 80.2-84.502zm0-301.632l50.137 84.157H498.62l31.66-84.157zm147.5-149.475l-38.413 190.189-38.539-63.396 76.952-126.793zm883.965-126.793l82.151 63.397h-123.652l41.501-63.396zm-541.041 532.363l58.21 91.074h-94.846l36.636-91.074zM530.28 4043.409l48.54 75.721-102.792 19.373 54.252-95.094zm1012.153 201.934v81.6l-76.952 45.192 76.952-126.792z"/></svg>