<svg id="eiqY5MBZQja1" xmlns="http://www.w3.org/2000/svg" xmlns:xlink="http://www.w3.org/1999/xlink" viewBox="0 0 1920 4800" shape-rendering="geometricPrecision" text-rendering="geometricPrecision" style="background-color:transparent"><polygon points="-23.585309,-89.768358 -3.843164,21.593117 -68.899472,1.027735 -23.585309,-89.768358" transform="translate(136.11039 635.974359)" fill="#d2dbed" stroke-width="0"/><polygon points="-23.585309,-89.768358 -7.810559,19.900659 -68.899472,1.027735 -23.585309,-89.768358" transform="translate(1821.005868 747.335834)" fill="#d2dbed" stroke-width="0"/><polygon points="-23.585309,-89.768358 21.728852,1.027736 -49.641,36.340749 -23.585309,-89.768358" transform="translate(1273.847862 811.606804)" fill="#d2dbed" stroke-width="0"/><polygon points="-68.899472,-100.605774 21.728852,1.027736 -68.899472,1.027735 -68.899472,-100.605774" transform="translate(317.828237 897.736572)" fill="#d2dbed" stroke-width="0"/><polygon points="-23.585309,-89.768358 21.728852,1.027736 -47.019745,31.933848 -23.585309,-89.768358" transform="translate(1383.90514 462.558086)" fill="#d2dbed" stroke-width="0"/><polygon points="19.42929,-120.431561 21.728852,1.027736 -68.899472,1.027735 19.42929,-120.431561" transform="translate(1793.766019 968.379114)" fill="#d2dbed" stroke-width="0"/><polygon points="-23.585309,-89.768358 21.728852,1.027736 -32.415628,26.272231 -23.585309,-89.768358" transform="translate(706.178253 897.736572)" fill="#d2dbed" stroke-width="0"/><polygon points="-121.213551,-192 -113.578779,-109.797999 -166.276878,-109.797999 -121.213551,-192" transform="translate(363.009215 1301.698029)" fill="#d2dbed" stroke-width="0"/><polygon points="-121.213551,-192 -98.434522,-152.300451 -166.276878,-109.797999 -121.213551,-192" transform="translate(210.708767 1445.143803)" fill="#d2dbed" stroke-width="0"/><polygon points="-121.213551,-192 -76.150225,-109.797999 -143.992581,-134.591096 -121.213551,-192" transform="translate(188.42447 1693.074769)" fill="#d2dbed" stroke-width="0"/><polygon points="-117.671681,-159.384193 -76.150225,-109.797999 -166.276878,-109.797999 -117.671681,-159.384193" transform="translate(217.410753 1887.877672)" fill="#d2dbed" stroke-width="0"/><polygon points="-121.213551,-192 -68.636527,-150.899 -166.276878,-109.797999 -121.213551,-192" transform="translate(415.707314 1987.050059)" fill="#d2dbed" stroke-width="0"/><polygon points="-121.213551,-192 -76.150225,-109.797999 -144.786756,-91.056678 -121.213551,-192" transform="translate(355.495512 1775.27677)" fill="#d2dbed" stroke-width="0"/><polygon points="-92.668533,-180.342425 -76.150225,-109.797999 -166.276878,-109.797999 -92.668533,-180.342425" transform="translate(1934.408861 1290.040454)" fill="#d2dbed" stroke-width="0"/><polygon points="-121.213551,-192 -83.042911,-168.977839 -166.276878,-109.797999 -121.213551,-192" transform="translate(1753.773444 1383.90003)" fill="#d2dbed" stroke-width="0"/><polygon points="-121.213551,-192 -83.042911,-149.497551 -166.276878,-109.797999 -121.213551,-192" transform="translate(1663.646791 1277.643903)" fill="#d2dbed" stroke-width="0"/><polygon points="-114.320866,-149.128065 -76.150225,-109.797999 -166.276878,-109.797999 -114.320866,-149.128065" transform="translate(1746.880758 1732.404835)" fill="#d2dbed" stroke-width="0"/><polygon points="-121.213551,-192 -76.150225,-109.797999 -139.287864,-124.33497 -121.213551,-192" transform="translate(1936.708423 1642.087127)" fill="#d2dbed" stroke-width="0"/><polygon points="-121.213551,-192 -76.150225,-109.797999 -138.903915,-141.012367 -121.213551,-192" transform="translate(1608.747793 1936.062426)" fill="#d2dbed" stroke-width="0"/><polygon points="-77.92116,-160.123174 -76.150225,-109.797999 -166.276878,-109.797999 -77.92116,-160.123174" transform="translate(1846.053143 1996.274232)" fill="#d2dbed" stroke-width="0"/><polygon points="-116.458724,-150.898999 -76.150225,-109.797999 -166.276878,-109.797999 -116.458724,-150.898999" transform="translate(776.98509 1945.949058)" fill="#d2dbed" stroke-width="0"/><polygon points="58.722287,-55.235551 75.028614,20.951416 0.513129,53.330876 58.722287,-55.235551" transform="translate(68.602463 2116.08001)" fill="#d2dbed" stroke-width="0"/><polygon points="21.442306,-27.617785 116.931446,53.330876 0.513129,39.71021 21.442306,-27.617785" transform="translate(318.114783 2181.791278)" fill="#d2dbed" stroke-width="0"/><polygon points="58.722287,-55.235551 90.62057,19.999091 0.513129,53.330876 58.722287,-55.235551" transform="translate(410.148115 2395.114778)" fill="#d2dbed" stroke-width="0"/><polygon points="58.722287,-55.235551 101.171126,0.952337 0.513129,53.330876 58.722287,-55.235551" transform="translate(166.263773 2602.724261)" fill="#d2dbed" stroke-width="0"/><polygon points="58.722287,-55.235551 51.004147,78.091639 0.513129,53.330876 58.722287,-55.235551" transform="translate(841.16388 2762.716896)" fill="#d2dbed" stroke-width="0"/><polygon points="58.722287,-55.235551 82.03316,18.570569 0.513129,53.330876 58.722287,-55.235551" transform="translate(1020.190822 2762.716896)" fill="#d2dbed" stroke-width="0"/><polygon points="58.722287,-55.235551 78.760806,52.854706 0.513129,53.330876 58.722287,-55.235551" transform="translate(1463.672434 2644.627095)" fill="#d2dbed" stroke-width="0"/><polygon points="58.722287,-55.235551 75.867917,43.807505 0.513129,53.330876 58.722287,-55.235551" transform="translate(579.903621 2503.681205)" fill="#d2dbed" stroke-width="0"/><polygon points="58.722287,-55.235551 116.931446,53.330876 38.92651,45.712163 58.722287,-55.235551" transform="translate(804.655173 2197.981016)" fill="#d2dbed" stroke-width="0"/><polygon points="58.722287,-55.235551 71.473237,22.856076 0.513129,53.330876 58.722287,-55.235551" transform="translate(1770.267091 2416.066207)" fill="#d2dbed" stroke-width="0"/><polygon points="58.722287,-55.235551 116.931446,53.330876 58.722287,53.330876 58.722287,-55.235551" transform="translate(1723.928565 2775.097278)" fill="#d2dbed" stroke-width="0"/><polygon points="58.722287,-55.235551 116.931446,53.330876 58.722287,29.522463 58.722287,-55.235551" transform="translate(542.105816 2731.289772)" fill="#d2dbed" stroke-width="0"/><polygon points="17.105303,-22.856099 116.931446,53.330876 0.513129,53.330876 17.105303,-22.856099" transform="translate(1480.264609 2127.508064)" fill="#d2dbed" stroke-width="0"/><polygon points="71.967401,-2.640287 71.967402,91.777813 1.065218,126.733686 71.967401,-2.640287" transform="translate(94.809501 2886.123463)" fill="#d2dbed" stroke-width="0"/><polygon points="71.708044,64.327819 1.065218,191.420673 1.065218,126.733686 71.708044,64.327819" transform="translate(151.373343 3160.623388)" fill="#d2dbed" stroke-width="0"/><polygon points="51.916713,75.520705 142.869584,126.733686 1.065218,126.733686 51.916713,75.520705" transform="translate(557.965281 3027.629922)" fill="#d2dbed" stroke-width="0"/><polygon points="71.967401,-2.640287 71.967401,81.990811 1.065218,126.733686 71.967401,-2.640287" transform="translate(1333.666591 3015.497436)" fill="#d2dbed" stroke-width="0"/><polygon points="101.980221,78.303806 142.869584,126.733686 1.065218,126.733686 101.980221,78.303806" transform="translate(989.496565 3568.821293)" fill="#d2dbed" stroke-width="0"/><polygon points="71.967401,-2.640287 108.362292,78.303806 1.065218,126.733686 71.967401,-2.640287" transform="translate(1187.214422 3390.418411)" fill="#d2dbed" stroke-width="0"/><polygon points="9.658364,44.383715 142.869584,126.733686 47.635879,109.070701 9.658364,44.383715" transform="translate(387.41035 3631.597266)" fill="#d2dbed" stroke-width="0"/><polygon points="13.348166,32.553813 73.461998,108.803791 1.065218,126.733686 13.348166,32.553813" transform="translate(53.862753 3549.247295)" fill="#d2dbed" stroke-width="0"/><polygon points="71.967401,-2.640287 110.820517,62.046699 1.065218,126.733686 71.967401,-2.640287" transform="translate(1094.497971 3678.621268)" fill="#d2dbed" stroke-width="0"/><polygon points="53.537083,43.479806 142.869584,126.733686 1.065218,126.733686 53.537083,43.479806" transform="translate(1642.831268 3568.821293)" fill="#d2dbed" stroke-width="0"/><polygon points="71.967401,-2.640287 142.869584,126.733686 71.967401,78.303808 71.967401,-2.640287" transform="translate(1454.326471 3131.397404)" fill="#d2dbed" stroke-width="0"/><polygon points="-147.975384,-152.612087 -95.002641,-84.423707 -166.276878,-65.207507 -147.975383,-152.612087" transform="translate(226.328453 4076.918304)" fill="#d2dbed" stroke-width="0"/><polygon points="-89.324754,-192 -68.677115,-49.12911 -166.276878,-65.207507 -89.324754,-192" transform="translate(235.454018 4593.20175)" fill="#d2dbed" stroke-width="0"/><polygon points="-86.077689,-149.709681 -37.538208,-104.172296 -166.276878,-65.207507 -86.077689,-149.709681" transform="translate(616.357623 4739.319706)" fill="#d2dbed" stroke-width="0"/><polygon points="-134.617169,-149.365025 -84.480355,-65.207507 -166.276878,-65.207507 -134.617169,-149.365025" transform="translate(664.897104 4437.342599)" fill="#d2dbed" stroke-width="0"/><polygon points="-89.324754,-192 -127.738136,-1.811261 -166.276878,-65.207507 -89.324754,-192" transform="translate(767.104981 4330.50329)" fill="#d2dbed" stroke-width="0"/><polygon points="-124.775846,-128.603754 -42.624323,-65.207507 -166.276878,-65.207507 -124.775846,-128.603754" transform="translate(1686.520809 4140.314551)" fill="#d2dbed" stroke-width="0"/><polygon points="-129.640579,-156.282277 -71.431421,-65.207507 -166.276878,-65.207507 -129.640579,-156.282277" transform="translate(1150.34453 4700.354917)" fill="#d2dbed" stroke-width="0"/><polygon points="-112.025378,-160.301877 -63.485898,-84.580639 -166.276878,-65.207507 -112.025378,-160.301877" transform="translate(642.305313 4203.710797)" fill="#d2dbed" stroke-width="0"/><polygon points="-89.324754,-192 -89.324754,-110.400237 -166.276878,-65.207507 -89.324754,-192" transform="translate(1631.757995 4437.342599)" fill="#d2dbed" stroke-width="0"/></svg>